<?xml version="1.0" encoding="UTF-8" standalone="no"?>
<!DOCTYPE svg PUBLIC "-//W3C//DTD SVG 1.1//EN" "http://www.w3.org/Graphics/SVG/1.1/DTD/svg11.dtd">
<svg xmlns="http://www.w3.org/2000/svg" version="1.1" viewBox="0.00 0.00 221.00 250.00">
<path fill="#500e0f" d="
  M 165.98 0.00
  L 167.57 0.00
  Q 174.09 0.60 176.79 1.23
  Q 196.26 5.80 202.01 25.03
  Q 204.44 33.18 204.45 41.52
  Q 204.53 112.06 204.48 185.80
  Q 204.47 191.16 206.34 195.83
  C 208.44 201.10 214.50 202.35 219.65 202.22
  Q 220.35 202.20 220.36 202.90
  Q 220.55 220.10 206.18 224.52
  C 195.73 227.73 181.03 226.69 175.41 215.70
  C 171.94 208.92 171.28 200.87 171.27 193.29
  Q 171.25 121.42 171.33 48.86
  C 171.34 39.92 170.16 31.92 159.86 31.04
  C 150.67 30.26 144.29 34.76 140.10 42.36
  Q 139.00 44.34 139.00 46.89
  Q 138.97 190.41 138.98 190.76
  Q 139.27 206.65 141.87 221.32
  A 0.31 0.30 81.1 0 1 141.61 221.68
  Q 126.88 223.41 112.78 223.29
  Q 105.71 223.24 105.71 216.35
  Q 105.73 131.28 105.72 46.59
  C 105.72 38.41 103.14 31.61 93.95 31.00
  C 84.78 30.38 78.95 34.73 74.47 42.48
  Q 73.35 44.42 73.35 46.52
  Q 73.39 116.98 73.35 185.15
  Q 73.34 204.08 76.26 221.08
  Q 76.36 221.63 75.80 221.70
  Q 60.80 223.52 46.65 223.23
  C 41.77 223.13 40.15 220.12 40.15 215.80
  Q 40.24 127.55 40.14 40.51
  Q 40.13 35.10 38.36 30.85
  C 35.99 25.17 30.53 24.43 24.88 24.29
  A 0.67 0.67 0.0 0 1 24.23 23.63
  C 24.12 14.74 27.54 6.22 35.94 2.87
  Q 43.64 -0.20 52.03 0.24
  Q 65.36 0.95 70.96 13.41
  Q 71.25 14.05 71.74 13.55
  Q 81.62 3.67 95.69 1.03
  C 111.17 -1.87 125.01 3.13 132.83 17.23
  A 0.48 0.48 0.0 0 0 133.62 17.30
  Q 146.10 1.83 165.98 0.00
  Z"
/>
<path fill="#500e0f" d="
  M 30.57 228.67
  Q 31.95 229.70 36.87 230.07
  Q 37.45 230.12 37.44 230.69
  Q 37.28 243.92 24.98 246.08
  C 19.38 247.06 13.04 246.65 8.64 242.46
  C 4.17 238.19 3.39 230.49 3.39 224.50
  Q 3.41 137.30 3.36 53.56
  Q 3.36 44.97 0.70 34.99
  A 0.64 0.63 69.5 0 1 1.03 34.26
  Q 12.12 28.49 22.70 29.65
  C 26.00 30.02 26.43 32.68 26.43 35.67
  Q 26.41 128.54 26.47 220.25
  Q 26.47 225.59 30.57 228.67
  Z"
/>
</svg>
