<?xml version="1.0" encoding="UTF-8"?>
<svg xmlns="http://www.w3.org/2000/svg" xmlns:xlink="http://www.w3.org/1999/xlink" width="200px" height="120px" viewBox="0 0 200 120" version="1.1">
<g id="surface1">
<path style=" stroke:none;fill-rule:nonzero;fill:rgb(82.745098%,54.901961%,35.686275%);fill-opacity:1;" d="M 145.242188 2.921875 C 145.242188 3.625 144.671875 4.195312 143.96875 4.195312 C 143.273438 4.195312 142.703125 3.625 142.703125 2.921875 C 142.703125 2.21875 143.273438 1.648438 143.96875 1.648438 C 144.671875 1.648438 145.242188 2.21875 145.242188 2.921875 Z M 145.242188 2.921875 "/>
<path style=" stroke:none;fill-rule:nonzero;fill:rgb(82.745098%,54.901961%,35.686275%);fill-opacity:1;" d="M 113.8125 15.851562 L 116.382812 19.3125 C 116.523438 19.507812 116.476562 19.601562 116.242188 19.59375 L 114.757812 19.5625 C 114.5 19.5625 114.257812 19.4375 114.101562 19.234375 L 112.328125 16.828125 C 112.171875 16.609375 111.960938 16.53125 111.695312 16.59375 C 103.734375 18.460938 102.4375 8.578125 106.828125 4.367188 C 110.492188 0.851562 116.6875 2.234375 117.179688 7.734375 C 117.484375 11.148438 116.367188 13.804688 113.835938 15.710938 C 113.8125 15.726562 113.796875 15.75 113.789062 15.773438 C 113.789062 15.796875 113.796875 15.828125 113.8125 15.851562 Z M 109.210938 15.210938 C 111.601562 15.890625 114.242188 13.945312 115.109375 10.875 C 115.976562 7.796875 114.742188 4.757812 112.351562 4.078125 C 109.953125 3.398438 107.3125 5.335938 106.445312 8.414062 C 105.578125 11.484375 106.820312 14.53125 109.210938 15.210938 Z M 109.210938 15.210938 "/>
<path style=" stroke:none;fill-rule:nonzero;fill:rgb(5.490196%,15.686275%,24.705882%);fill-opacity:1;" d="M 11.1875 60.5 C 12.554688 60.21875 12.773438 58.460938 12.773438 57.304688 C 12.789062 41.570312 12.789062 26.023438 12.765625 10.671875 C 12.765625 9.585938 12.570312 7.679688 11.476562 7.085938 C 10.0625 6.3125 7.648438 6.34375 6.070312 6.351562 C 6.015625 6.351562 5.984375 6.328125 5.984375 6.265625 L 5.976562 3.710938 C 5.976562 3.65625 6.015625 3.617188 6.070312 3.617188 L 18.3125 2.695312 C 18.453125 2.679688 18.523438 2.75 18.523438 2.890625 C 18.539062 22.921875 18.53125 40.851562 18.515625 56.679688 C 18.507812 58.3125 18.585938 60.382812 20.671875 60.625 C 23.703125 60.96875 26.726562 60.976562 29.71875 60.648438 C 31.265625 60.476562 32.046875 59.5625 32.054688 57.898438 C 32.101562 49.242188 32.101562 40.710938 32.0625 32.304688 C 32.0625 31.320312 31.851562 30.476562 31.429688 29.765625 C 30.617188 28.382812 27.101562 28.453125 25.726562 28.484375 C 25.671875 28.484375 25.648438 28.460938 25.648438 28.40625 L 25.648438 25.835938 C 25.648438 25.773438 25.679688 25.734375 25.742188 25.726562 L 37.617188 24.8125 C 37.671875 24.8125 37.734375 24.828125 37.773438 24.867188 C 37.820312 24.90625 37.84375 24.96875 37.84375 25.023438 C 37.835938 36.328125 37.835938 46.992188 37.835938 57.03125 C 37.828125 58.570312 37.984375 60.335938 39.773438 60.601562 C 41.21875 60.8125 42.570312 60.90625 43.835938 60.867188 C 43.929688 60.867188 43.976562 60.914062 43.976562 61.007812 L 44 63.460938 C 44 63.5625 43.953125 63.609375 43.84375 63.601562 C 38.78125 63.3125 33.773438 63.273438 28.820312 63.476562 C 26.5 63.570312 24.0625 63.570312 21.515625 63.476562 C 16.195312 63.265625 11.09375 63.3125 6.210938 63.609375 C 6.054688 63.617188 5.984375 63.546875 5.984375 63.390625 L 5.976562 61.015625 C 5.976562 60.921875 6.023438 60.875 6.125 60.875 C 8.109375 60.914062 9.796875 60.789062 11.1875 60.5 Z M 11.1875 60.5 "/>
<path style=" stroke:none;fill-rule:nonzero;fill:rgb(5.490196%,15.686275%,24.705882%);fill-opacity:1;" d="M 162.851562 57.21875 C 161.601562 60.164062 159.164062 62.492188 156.304688 63.671875 C 153.039062 65.023438 148.71875 64.679688 145.359375 63.726562 C 142.90625 63.023438 140.851562 61.757812 139.203125 59.921875 C 137.164062 57.640625 137.21875 54.09375 138.226562 51.359375 C 140.742188 44.554688 149.804688 42.085938 156.148438 41.25 C 158.273438 40.96875 160.265625 40.78125 162.132812 40.679688 C 162.289062 40.671875 162.367188 40.585938 162.375 40.4375 C 162.5625 35.59375 162.375 31 158.203125 27.914062 C 155.78125 26.132812 153.21875 25.960938 150.359375 26.414062 C 147.71875 26.828125 145.554688 27.992188 143.867188 29.914062 C 143.648438 30.164062 143.703125 30.289062 144.039062 30.289062 C 149.9375 30.359375 149.085938 39.21875 143.46875 38.21875 C 141.046875 37.789062 139.929688 36.242188 140.09375 33.585938 C 140.421875 28.367188 145.617188 25.148438 150.375 24.476562 C 154.164062 23.9375 157.546875 24.367188 160.53125 25.765625 C 165.203125 27.960938 168.351562 31.757812 168.382812 37.046875 C 168.421875 43.726562 168.429688 50.25 168.398438 56.617188 C 168.382812 58.273438 169.132812 61.039062 171.148438 61.335938 C 173.953125 61.742188 174.710938 58.960938 174.742188 56.757812 C 174.773438 54.78125 174.78125 52.875 174.757812 51.046875 C 174.757812 51 174.78125 50.945312 174.8125 50.914062 C 174.851562 50.875 174.898438 50.859375 174.953125 50.859375 L 176.820312 50.851562 C 176.921875 50.851562 176.96875 50.90625 176.976562 51.007812 C 177.046875 53.320312 177.023438 55.414062 176.90625 57.289062 C 176.828125 58.46875 176.5 59.59375 175.914062 60.664062 C 175.835938 60.820312 175.882812 60.890625 176.054688 60.890625 C 177.742188 60.898438 179.3125 60.78125 180.757812 60.539062 C 182.40625 60.257812 182.476562 58.070312 182.476562 56.8125 C 182.460938 41.578125 182.453125 26.367188 182.46875 11.1875 C 182.46875 10.015625 182.375 7.78125 181.226562 7.125 C 179.789062 6.3125 177.421875 6.382812 175.75 6.335938 C 175.695312 6.328125 175.664062 6.304688 175.664062 6.25 L 175.671875 3.71875 C 175.671875 3.648438 175.703125 3.617188 175.765625 3.617188 L 188 2.695312 C 188.140625 2.679688 188.21875 2.75 188.21875 2.898438 C 188.226562 20.726562 188.226562 38.664062 188.210938 56.71875 C 188.210938 57.976562 188.257812 60.0625 189.742188 60.453125 C 191.359375 60.882812 193.273438 60.898438 194.921875 60.890625 C 195.007812 60.890625 195.054688 60.929688 195.054688 61.015625 L 195.054688 63.46875 C 195.054688 63.5625 195.007812 63.601562 194.90625 63.601562 C 188.0625 63.289062 182.367188 63.28125 175.898438 63.59375 C 175.835938 63.601562 175.773438 63.578125 175.734375 63.53125 C 175.6875 63.484375 175.664062 63.429688 175.664062 63.367188 L 175.695312 61.460938 C 175.695312 61.21875 175.617188 61.1875 175.453125 61.359375 C 172.726562 64.320312 168.3125 65.25 165.320312 62.171875 C 164.09375 60.90625 163.335938 59.265625 163.046875 57.25 C 163.007812 57.007812 162.945312 57 162.851562 57.21875 Z M 152.234375 44.382812 C 147.546875 46.351562 143.429688 51.335938 144.445312 56.742188 C 144.757812 58.398438 145.632812 59.789062 147.078125 60.90625 C 150.34375 63.445312 154.710938 62.945312 158.007812 60.601562 C 160.742188 58.664062 162.171875 56 162.304688 52.617188 C 162.40625 49.90625 162.429688 46.609375 162.367188 42.71875 C 162.367188 42.570312 162.296875 42.5 162.148438 42.507812 C 158.15625 42.65625 154.851562 43.28125 152.234375 44.382812 Z M 152.234375 44.382812 "/>
<path style=" stroke:none;fill-rule:nonzero;fill:rgb(82.745098%,54.901961%,35.686275%);fill-opacity:1;" d="M 158.21875 6.40625 L 160.695312 6.429688 C 160.78125 6.4375 160.820312 6.476562 160.8125 6.5625 L 160.671875 7.578125 C 160.65625 7.703125 160.585938 7.765625 160.460938 7.765625 L 158.03125 7.757812 C 157.882812 7.757812 157.796875 7.835938 157.773438 7.984375 L 157 14.296875 C 156.953125 14.71875 157.210938 15.117188 157.617188 15.234375 C 158.179688 15.398438 158.734375 15.25 159.289062 14.796875 C 159.296875 14.78125 159.3125 14.78125 159.328125 14.796875 C 159.539062 15.039062 159.71875 15.375 159.859375 15.8125 C 159.875 15.875 159.859375 15.945312 159.804688 15.984375 C 158.070312 17.242188 154.921875 17.359375 155.203125 14.359375 C 155.375 12.507812 155.625 10.398438 155.960938 8.039062 C 155.96875 7.976562 155.945312 7.90625 155.90625 7.851562 C 155.859375 7.796875 155.796875 7.765625 155.726562 7.765625 L 154.734375 7.757812 C 154.65625 7.757812 154.578125 7.71875 154.523438 7.664062 C 154.46875 7.601562 154.4375 7.523438 154.445312 7.4375 L 154.476562 6.851562 C 154.484375 6.679688 154.578125 6.578125 154.75 6.5625 L 155.945312 6.421875 C 156.109375 6.40625 156.210938 6.3125 156.257812 6.148438 L 156.96875 3.242188 C 157.03125 2.984375 157.257812 2.8125 157.515625 2.820312 L 158.164062 2.828125 C 158.320312 2.828125 158.390625 2.914062 158.375 3.070312 L 158.007812 6.164062 C 157.984375 6.328125 158.0625 6.40625 158.21875 6.40625 Z M 158.21875 6.40625 "/>
<path style=" stroke:none;fill-rule:nonzero;fill:rgb(5.490196%,15.686275%,24.705882%);fill-opacity:1;" d="M 38.242188 9.515625 C 38.242188 12.078125 36.171875 14.15625 33.617188 14.15625 C 31.0625 14.15625 28.992188 12.078125 28.992188 9.515625 C 28.992188 6.953125 31.0625 4.875 33.617188 4.875 C 36.171875 4.875 38.242188 6.953125 38.242188 9.515625 Z M 38.242188 9.515625 "/>
<path style=" stroke:none;fill-rule:nonzero;fill:rgb(82.745098%,54.901961%,35.686275%);fill-opacity:1;" d="M 82.351562 9.445312 C 83.515625 6.726562 86.445312 5.476562 89.03125 6.382812 C 90.492188 6.898438 91.320312 8.015625 91.53125 9.734375 C 91.984375 13.578125 89.03125 17.476562 84.929688 16.710938 C 83.101562 16.367188 82.039062 15.15625 81.734375 13.085938 C 81.6875 12.742188 81.601562 12.726562 81.476562 13.0625 C 80.414062 15.992188 77.1875 18.164062 74.398438 15.820312 C 74.273438 15.71875 74.203125 15.742188 74.179688 15.90625 L 73.679688 20.085938 C 73.664062 20.171875 73.617188 20.21875 73.515625 20.21875 L 71.992188 20.210938 C 71.898438 20.210938 71.859375 20.164062 71.867188 20.070312 L 73.492188 6.640625 C 73.53125 6.328125 73.703125 6.179688 74.015625 6.195312 L 74.53125 6.21875 C 74.914062 6.242188 75.09375 6.445312 75.070312 6.828125 L 74.953125 8.65625 C 74.929688 8.945312 75 8.96875 75.164062 8.726562 C 75.5625 8.140625 76.023438 7.625 76.53125 7.171875 C 78.929688 5.046875 81.9375 6.023438 82.15625 9.414062 C 82.171875 9.703125 82.242188 9.710938 82.351562 9.445312 Z M 85.265625 15.3125 C 86.8125 15.867188 88.679688 14.585938 89.445312 12.445312 C 90.210938 10.304688 89.578125 8.117188 88.03125 7.5625 C 86.484375 7.007812 84.609375 8.296875 83.84375 10.4375 C 83.085938 12.578125 83.71875 14.757812 85.265625 15.3125 Z M 76.234375 15.367188 C 80.609375 15.75 81.789062 6.804688 78.148438 7.570312 C 77.6875 7.664062 77.3125 7.835938 77.046875 8.0625 C 75.304688 9.570312 74.429688 11.625 74.414062 14.226562 C 74.414062 14.367188 74.460938 14.492188 74.5625 14.59375 C 74.992188 15.046875 75.546875 15.304688 76.234375 15.367188 Z M 76.234375 15.367188 "/>
<path style=" stroke:none;fill-rule:nonzero;fill:rgb(82.745098%,54.901961%,35.686275%);fill-opacity:1;" d="M 128.195312 12.367188 C 128.179688 14.265625 129.09375 15.34375 130.890625 15.359375 C 132.171875 15.367188 133.1875 14.90625 134.171875 14.125 C 134.429688 13.921875 134.679688 13.929688 134.914062 14.164062 L 135.070312 14.328125 C 135.171875 14.429688 135.226562 14.5625 135.21875 14.710938 C 135.210938 14.851562 135.148438 14.984375 135.046875 15.078125 C 133.492188 16.453125 131.804688 17.015625 129.992188 16.765625 C 127.648438 16.445312 126.453125 15.046875 126.40625 12.585938 C 126.335938 8.84375 129.140625 5.640625 133.0625 6.15625 C 134.507812 6.351562 135.882812 7.453125 135.507812 9.070312 C 134.9375 11.515625 130.445312 11.867188 128.476562 12.0625 C 128.289062 12.078125 128.195312 12.179688 128.195312 12.367188 Z M 128.523438 10.820312 C 130.101562 10.726562 131.5625 10.421875 132.90625 9.90625 C 134.109375 9.4375 134.34375 7.78125 132.914062 7.492188 C 130.695312 7.046875 128.890625 8.570312 128.421875 10.710938 C 128.421875 10.742188 128.429688 10.765625 128.445312 10.789062 C 128.46875 10.8125 128.492188 10.820312 128.523438 10.820312 Z M 128.523438 10.820312 "/>
<path style=" stroke:none;fill-rule:nonzero;fill:rgb(82.745098%,54.901961%,35.686275%);fill-opacity:1;" d="M 151.460938 14.34375 C 151.476562 13.976562 151.390625 13.945312 151.195312 14.257812 C 150.367188 15.625 149.320312 16.453125 148.054688 16.742188 C 146.203125 17.15625 144.6875 15.96875 144.476562 14.125 C 143.867188 8.6875 148.71875 4.914062 153.90625 6.453125 C 154.0625 6.5 154.125 6.601562 154.109375 6.765625 L 152.96875 16.28125 C 152.9375 16.570312 152.773438 16.710938 152.476562 16.695312 L 151.757812 16.65625 C 151.4375 16.632812 151.289062 16.460938 151.328125 16.132812 C 151.390625 15.523438 151.4375 14.921875 151.460938 14.34375 Z M 150.476562 13.6875 C 151.757812 11.828125 152.023438 9.851562 152.164062 7.6875 C 152.171875 7.546875 152.109375 7.46875 151.96875 7.453125 C 148.328125 7.078125 145.671875 10.382812 146.382812 13.84375 C 146.59375 14.875 147.21875 15.335938 148.265625 15.242188 C 149.15625 15.15625 149.984375 14.390625 150.476562 13.6875 Z M 150.476562 13.6875 "/>
<path style=" stroke:none;fill-rule:nonzero;fill:rgb(82.745098%,54.901961%,35.686275%);fill-opacity:1;" d="M 161.671875 12.328125 C 161.59375 13.710938 162.164062 15.023438 163.65625 15.289062 C 165.234375 15.5625 166.492188 15.046875 167.695312 14.101562 C 167.84375 13.984375 168 13.96875 168.164062 14.0625 C 168.375 14.179688 168.5625 14.351562 168.71875 14.578125 C 168.804688 14.703125 168.789062 14.820312 168.679688 14.921875 C 166.78125 16.664062 164.710938 17.210938 162.484375 16.5625 C 160.640625 16.03125 159.757812 14.140625 159.835938 12.296875 C 159.96875 9.359375 161.734375 6.75 164.703125 6.171875 C 166.53125 5.820312 169.265625 6.523438 168.992188 8.882812 C 168.679688 11.484375 163.921875 11.867188 161.929688 12.0625 C 161.765625 12.078125 161.679688 12.164062 161.671875 12.328125 Z M 161.984375 10.820312 C 163.765625 10.703125 165.257812 10.382812 166.453125 9.867188 C 168.195312 9.117188 167.28125 7.320312 165.625 7.398438 C 163.757812 7.46875 162.515625 8.578125 161.890625 10.703125 C 161.882812 10.734375 161.890625 10.765625 161.90625 10.78125 C 161.921875 10.804688 161.953125 10.820312 161.984375 10.820312 Z M 161.984375 10.820312 "/>
<path style=" stroke:none;fill-rule:nonzero;fill:rgb(82.745098%,54.901961%,35.686275%);fill-opacity:1;" d="M 94.125 8.648438 C 94.09375 9.007812 94.171875 9.03125 94.34375 8.71875 C 95.164062 7.265625 96.304688 5.835938 98.171875 6.21875 C 98.28125 6.242188 98.359375 6.351562 98.335938 6.46875 L 98.085938 7.929688 C 98.0625 8.039062 98 8.078125 97.890625 8.046875 C 93.882812 6.804688 93.5 14.375 93.328125 16.546875 C 93.320312 16.625 93.28125 16.664062 93.203125 16.664062 L 91.539062 16.664062 C 91.492188 16.664062 91.46875 16.640625 91.476562 16.59375 L 92.6875 6.570312 C 92.71875 6.335938 92.921875 6.171875 93.15625 6.1875 L 93.9375 6.242188 C 94.1875 6.257812 94.304688 6.390625 94.28125 6.632812 Z M 94.125 8.648438 "/>
<path style=" stroke:none;fill-rule:nonzero;fill:rgb(82.745098%,54.901961%,35.686275%);fill-opacity:1;" d="M 123.609375 14.492188 C 123.328125 14.867188 123.023438 15.210938 122.679688 15.539062 C 121.210938 16.96875 118.179688 17.664062 117.367188 15.109375 C 117.148438 14.429688 117.09375 13.648438 117.210938 12.765625 C 117.492188 10.59375 117.742188 8.46875 117.960938 6.390625 C 117.96875 6.28125 118.054688 6.203125 118.164062 6.203125 L 119.664062 6.203125 C 119.710938 6.203125 119.75 6.226562 119.78125 6.265625 C 119.8125 6.296875 119.828125 6.34375 119.820312 6.390625 C 119.546875 8.695312 119.28125 10.984375 119.023438 13.273438 C 118.914062 14.1875 119.171875 15.21875 120.289062 15.265625 C 121.703125 15.3125 122.921875 13.96875 123.554688 12.796875 C 123.945312 12.070312 124.179688 11.226562 124.265625 10.257812 C 124.382812 8.890625 124.539062 7.585938 124.71875 6.335938 C 124.734375 6.25 124.78125 6.210938 124.867188 6.210938 L 126.351562 6.203125 C 126.5 6.203125 126.5625 6.28125 126.546875 6.421875 L 125.367188 16.320312 C 125.335938 16.578125 125.1875 16.703125 124.921875 16.6875 L 124.140625 16.648438 C 123.851562 16.632812 123.71875 16.476562 123.734375 16.179688 L 123.851562 14.585938 C 123.875 14.28125 123.789062 14.25 123.609375 14.492188 Z M 123.609375 14.492188 "/>
<path style=" stroke:none;fill-rule:nonzero;fill:rgb(82.745098%,54.901961%,35.686275%);fill-opacity:1;" d="M 138.179688 8.78125 C 139.007812 7.289062 140.101562 5.921875 141.851562 6.179688 C 142.117188 6.21875 142.226562 6.367188 142.179688 6.632812 L 141.945312 7.835938 C 141.914062 8.007812 141.8125 8.070312 141.640625 8.023438 C 139.265625 7.367188 137.984375 10.28125 137.710938 12.132812 C 137.507812 13.484375 137.335938 14.921875 137.203125 16.445312 C 137.1875 16.601562 137.101562 16.679688 136.945312 16.679688 L 135.515625 16.664062 C 135.390625 16.664062 135.328125 16.601562 135.34375 16.46875 L 136.554688 6.476562 C 136.578125 6.257812 136.695312 6.164062 136.914062 6.179688 L 137.757812 6.25 C 137.984375 6.265625 138.15625 6.460938 138.140625 6.6875 L 137.984375 8.71875 C 137.960938 9.039062 138.023438 9.0625 138.179688 8.78125 Z M 138.179688 8.78125 "/>
<path style=" stroke:none;fill-rule:nonzero;fill:rgb(82.745098%,54.901961%,35.686275%);fill-opacity:1;" d="M 141.484375 16.507812 L 142.703125 6.335938 C 142.710938 6.257812 142.773438 6.203125 142.84375 6.203125 L 144.390625 6.203125 C 144.429688 6.203125 144.46875 6.226562 144.5 6.257812 C 144.523438 6.28125 144.539062 6.328125 144.53125 6.367188 L 143.3125 16.546875 C 143.304688 16.625 143.242188 16.679688 143.171875 16.679688 L 141.625 16.671875 C 141.585938 16.671875 141.546875 16.648438 141.515625 16.617188 C 141.492188 16.585938 141.484375 16.546875 141.484375 16.507812 Z M 141.484375 16.507812 "/>
<path style=" stroke:none;fill-rule:nonzero;fill:rgb(5.490196%,15.686275%,24.705882%);fill-opacity:1;" d="M 56.820312 28.75 C 56.796875 39.320312 56.804688 47.828125 56.84375 54.289062 C 56.867188 58.171875 58.65625 63.171875 63.601562 62.234375 C 67.390625 61.515625 68.507812 56.34375 68.539062 53.179688 C 68.5625 51.359375 68.5625 49.578125 68.546875 47.835938 C 68.546875 47.796875 68.5625 47.757812 68.59375 47.726562 C 68.617188 47.695312 68.65625 47.679688 68.703125 47.679688 L 70.515625 47.679688 C 70.625 47.679688 70.679688 47.734375 70.6875 47.84375 C 70.859375 52.984375 71 57.835938 67.867188 61.921875 C 65.023438 65.632812 59.75 64.882812 55.851562 62.960938 C 52.148438 61.132812 50.8125 56.976562 50.8125 53.023438 C 50.796875 44.828125 50.789062 36.6875 50.804688 28.617188 C 50.804688 28.53125 50.734375 28.46875 50.648438 28.46875 L 43.507812 28.46875 C 43.429688 28.46875 43.367188 28.398438 43.367188 28.320312 L 43.359375 26.703125 C 43.359375 26.601562 43.414062 26.546875 43.515625 26.539062 C 49.671875 26.148438 53.1875 20.671875 54.132812 14.90625 C 54.4375 13.054688 54.601562 11.328125 54.632812 9.703125 C 54.632812 9.632812 54.671875 9.59375 54.742188 9.59375 L 56.734375 9.578125 C 56.78125 9.578125 56.796875 9.601562 56.796875 9.640625 L 56.8125 25.625 C 56.8125 25.679688 56.867188 25.726562 56.929688 25.726562 L 69.117188 25.726562 C 69.25 25.726562 69.320312 25.796875 69.320312 25.929688 L 69.320312 28.296875 C 69.320312 28.40625 69.234375 28.492188 69.125 28.492188 L 57.117188 28.460938 C 56.921875 28.460938 56.820312 28.554688 56.820312 28.75 Z M 56.820312 28.75 "/>
<path style=" stroke:none;fill-rule:nonzero;fill:rgb(5.490196%,15.686275%,24.705882%);fill-opacity:1;" d="M 80.398438 43.546875 C 80.351562 49.570312 81.304688 56.828125 86.742188 60.46875 C 89.890625 62.5625 93.453125 62.890625 97.4375 61.4375 C 101.382812 59.992188 103.6875 56.71875 104.90625 52.804688 C 105.117188 52.132812 105.804688 51.976562 106.40625 52.203125 C 106.757812 52.335938 106.992188 52.679688 106.976562 53.054688 C 106.9375 54.023438 106.5625 54.65625 106.179688 55.5 C 101.398438 66.070312 88.703125 67.078125 80.476562 60.125 C 75.039062 55.53125 72.664062 49.34375 73.21875 42.328125 C 73.648438 37.039062 75.78125 32.570312 79.632812 28.921875 C 84.1875 24.601562 90.289062 23.296875 96.28125 24.882812 C 101.148438 26.171875 104.359375 30.039062 105.96875 34.734375 C 106.609375 36.59375 106.960938 38.921875 107.023438 41.726562 C 107.039062 42.773438 106.601562 43.296875 105.703125 43.296875 C 97.320312 43.3125 88.960938 43.3125 80.640625 43.304688 C 80.484375 43.304688 80.398438 43.382812 80.398438 43.546875 Z M 82.257812 32.796875 C 81.171875 35.375 80.585938 38.195312 80.507812 41.25 C 80.5 41.390625 80.570312 41.460938 80.710938 41.460938 L 101.039062 41.46875 C 101.171875 41.46875 101.234375 41.40625 101.234375 41.273438 C 101.195312 38.5625 100.695312 35.734375 99.71875 32.78125 C 98.015625 27.625 93.382812 24.742188 88.132812 26.9375 C 85.375 28.09375 83.414062 30.046875 82.257812 32.796875 Z M 82.257812 32.796875 "/>
<path style=" stroke:none;fill-rule:nonzero;fill:rgb(5.490196%,15.686275%,24.705882%);fill-opacity:1;" d="M 119.492188 33.828125 C 120.023438 32.367188 120.773438 30.921875 121.742188 29.5 C 124.070312 26.070312 127.046875 24.375 131.257812 24.898438 C 134.492188 25.296875 137.28125 28.140625 136.226562 31.601562 C 135.359375 34.460938 130.9375 34.828125 129.460938 32.210938 C 128.453125 30.421875 129.015625 28.117188 130.695312 26.929688 C 130.882812 26.804688 130.859375 26.734375 130.640625 26.726562 C 128.570312 26.640625 126.820312 27.117188 125.382812 28.15625 C 120.742188 31.523438 119.664062 38.71875 119.679688 43.976562 C 119.6875 48.59375 119.695312 53.085938 119.703125 57.453125 C 119.710938 58.515625 120.015625 59.34375 120.625 59.929688 C 121.90625 61.15625 126.40625 60.890625 128.09375 60.890625 C 128.164062 60.890625 128.195312 60.929688 128.195312 61 L 128.195312 63.460938 C 128.195312 63.515625 128.171875 63.546875 128.109375 63.546875 C 121.273438 63.210938 114.359375 63.234375 107.351562 63.609375 C 107.179688 63.617188 107.09375 63.53125 107.09375 63.367188 L 107.09375 61.109375 C 107.09375 60.953125 107.171875 60.882812 107.328125 60.882812 C 108.734375 60.90625 110.242188 60.820312 111.84375 60.617188 C 113.570312 60.398438 113.929688 58.867188 113.929688 57.390625 C 113.953125 48.59375 113.945312 40.359375 113.914062 32.671875 C 113.914062 31 113.554688 29.140625 111.546875 28.796875 C 110.03125 28.546875 108.578125 28.4375 107.1875 28.484375 C 107.171875 28.484375 107.148438 28.476562 107.132812 28.460938 C 107.117188 28.445312 107.109375 28.421875 107.109375 28.398438 L 107.09375 25.851562 C 107.085938 25.773438 107.125 25.734375 107.203125 25.726562 L 119.117188 24.796875 C 119.15625 24.796875 119.195312 24.8125 119.226562 24.835938 C 119.25 24.867188 119.265625 24.898438 119.265625 24.945312 L 119.257812 33.789062 C 119.257812 34.25 119.335938 34.257812 119.492188 33.828125 Z M 119.492188 33.828125 "/>
<path style=" stroke:none;fill-rule:nonzero;fill:rgb(58.431373%,68.235294%,73.333333%);fill-opacity:1;" d="M 158.3125 85.640625 C 156.328125 93.546875 154.328125 101.65625 152.3125 109.96875 C 151.875 111.757812 150.984375 117.09375 154.476562 116.703125 C 156.21875 116.515625 157.6875 115.734375 158.882812 114.367188 C 160.757812 112.210938 162.304688 109.5 163.523438 106.21875 C 163.789062 105.5 164.304688 105.210938 165.054688 105.34375 C 165.101562 105.351562 165.148438 105.359375 165.203125 105.367188 C 165.992188 105.4375 166.257812 105.851562 165.976562 106.601562 C 164.015625 111.929688 159.203125 119.789062 152.273438 118.328125 C 148.523438 117.539062 146.671875 113.703125 147.203125 110.0625 C 147.3125 109.296875 147.46875 108.53125 147.65625 107.773438 C 149.523438 100.382812 151.375 92.992188 153.195312 85.59375 C 153.210938 85.546875 153.203125 85.5 153.171875 85.46875 C 153.140625 85.429688 153.101562 85.414062 153.054688 85.414062 L 145.84375 85.375 C 145.15625 85.375 144.820312 85.03125 144.828125 84.34375 L 144.835938 84.109375 C 144.851562 83.3125 145.257812 82.90625 146.0625 82.90625 L 153.703125 82.867188 C 153.835938 82.867188 153.945312 82.773438 153.976562 82.648438 C 155.070312 78.148438 156.117188 73.914062 157.101562 69.945312 C 157.515625 68.304688 158.476562 67.390625 159.992188 67.210938 C 161.648438 67.007812 162.625 68.34375 162.242188 69.90625 C 161.265625 73.9375 160.21875 78.164062 159.101562 82.59375 C 159.054688 82.78125 159.132812 82.882812 159.328125 82.882812 L 166.484375 82.890625 C 167.140625 82.890625 167.460938 83.226562 167.445312 83.890625 L 167.4375 84.171875 C 167.40625 84.96875 167 85.375 166.203125 85.375 L 158.601562 85.414062 C 158.445312 85.414062 158.351562 85.484375 158.3125 85.640625 Z M 158.3125 85.640625 "/>
<path style=" stroke:none;fill-rule:nonzero;fill:rgb(58.431373%,68.235294%,73.333333%);fill-opacity:1;" d="M 45.375 88.757812 C 48.453125 84.460938 52.507812 81.8125 57.835938 82.0625 C 61.125 82.21875 64.398438 83.898438 65.210938 87.320312 C 65.71875 89.445312 65.671875 91.828125 65.070312 94.460938 C 63.796875 100.015625 61.78125 105.039062 60.046875 110.367188 C 59.570312 111.851562 58.578125 115.195312 59.945312 116.359375 C 60.390625 116.726562 60.953125 116.835938 61.65625 116.671875 C 65.710938 115.726562 67.71875 109.578125 68.65625 106.078125 C 68.796875 105.554688 69.140625 105.304688 69.679688 105.335938 L 70.257812 105.359375 C 70.9375 105.398438 71.195312 105.75 71.03125 106.414062 C 69.789062 111.304688 67.109375 117.476562 61.851562 118.414062 C 57.796875 119.140625 54.679688 116.007812 54.804688 112.03125 C 54.859375 110.476562 55.304688 108.960938 55.828125 107.507812 C 57.796875 102.070312 59.273438 97.125 60.257812 92.6875 C 60.945312 89.609375 61.476562 83.21875 56.320312 83.796875 C 54.039062 84.054688 52.03125 84.984375 50.296875 86.59375 C 47.703125 89 45.859375 91.679688 44.75 94.632812 C 44.296875 95.828125 43.617188 98.351562 42.703125 102.1875 C 41.640625 106.679688 40.484375 111.289062 39.242188 116.023438 C 38.789062 117.78125 37.695312 118.601562 35.976562 118.476562 C 34.679688 118.375 33.8125 117.195312 34.140625 115.90625 C 35.984375 108.5625 37.8125 101.265625 39.601562 94.03125 C 40.25 91.4375 40.398438 89.125 40.054688 87.09375 C 39.132812 81.578125 32.726562 84.03125 30.070312 86.382812 C 27.515625 88.648438 25.632812 91.304688 24.414062 94.351562 C 24.085938 95.164062 23.390625 97.71875 22.3125 102.007812 C 21.257812 106.234375 20.1875 110.507812 19.109375 114.835938 C 18.78125 116.15625 18.476562 117.015625 18.1875 117.414062 C 16.90625 119.210938 12.945312 118.867188 13.71875 115.765625 C 15.8125 107.335938 17.898438 98.976562 19.960938 90.703125 C 20.375 89.070312 21.125 84.4375 18.898438 83.867188 C 17.125 83.414062 15.796875 85.085938 15.148438 86.515625 C 14.15625 88.734375 13.328125 91.304688 12.664062 94.226562 C 12.492188 94.992188 12.023438 95.320312 11.257812 95.226562 C 11.226562 95.21875 11.195312 95.21875 11.15625 95.210938 C 10.34375 95.148438 10.039062 94.71875 10.234375 93.929688 C 10.765625 91.75 11.398438 89.648438 12.140625 87.640625 C 13.09375 85.078125 14.9375 82.398438 17.796875 82.085938 C 21.648438 81.65625 24.609375 84.375 25.148438 88.09375 C 25.164062 88.15625 25.203125 88.203125 25.265625 88.21875 C 25.320312 88.234375 25.382812 88.210938 25.414062 88.164062 C 28.476562 84.046875 32.84375 81.601562 37.976562 82.117188 C 41.757812 82.492188 44.554688 84.664062 45.0625 88.679688 C 45.101562 88.96875 45.203125 89 45.375 88.757812 Z M 45.375 88.757812 "/>
<path style=" stroke:none;fill-rule:nonzero;fill:rgb(58.431373%,68.235294%,73.333333%);fill-opacity:1;" d="M 80.570312 99.265625 C 79.484375 103.226562 78.835938 107.382812 79.578125 111.242188 C 80.101562 113.976562 82 116.59375 84.9375 116.679688 C 86.796875 116.734375 88.664062 116.546875 90.453125 115.796875 C 94.414062 114.132812 97.664062 111.648438 100.195312 108.351562 C 100.34375 108.164062 100.5625 108.039062 100.796875 108.015625 C 101.039062 107.984375 101.273438 108.054688 101.460938 108.203125 C 101.726562 108.421875 101.921875 108.71875 102.046875 109.101562 C 102.085938 109.234375 102.085938 109.367188 102.03125 109.492188 C 101.125 111.6875 98.570312 113.71875 96.453125 115.007812 C 92.8125 117.21875 89.273438 118.515625 85.085938 118.484375 C 77.5625 118.4375 73.875 111.789062 73.71875 105.023438 C 73.515625 96.140625 77.210938 89.34375 84.789062 84.625 C 88.953125 82.039062 96.492188 80.304688 100.25 84.789062 C 102.148438 87.0625 102.023438 90.117188 100.757812 92.6875 C 99.382812 95.476562 95.992188 97.265625 93.046875 97.976562 C 88.96875 98.96875 85.070312 99.054688 80.90625 99.007812 C 80.734375 99.007812 80.617188 99.09375 80.570312 99.265625 Z M 87.8125 97.015625 C 90.140625 96.8125 92.46875 96.109375 94.804688 94.898438 C 97.117188 93.703125 98.484375 91.851562 98.617188 89.25 C 98.835938 84.65625 95.023438 82.867188 91.0625 84.265625 C 88.257812 85.25 86.09375 86.9375 84.554688 89.328125 C 82.9375 91.835938 81.820312 94.390625 81.195312 96.992188 C 81.15625 97.15625 81.21875 97.242188 81.390625 97.25 C 83.46875 97.28125 85.617188 97.210938 87.8125 97.015625 Z M 87.8125 97.015625 "/>
<path style=" stroke:none;fill-rule:nonzero;fill:rgb(58.431373%,68.235294%,73.333333%);fill-opacity:1;" d="M 118.859375 88.101562 C 121.289062 84.710938 124.609375 82.726562 128.8125 82.140625 C 131.523438 81.757812 133.914062 82.34375 135.984375 83.890625 C 139.132812 86.25 138.703125 91.421875 137.921875 94.765625 C 136.757812 99.757812 134.890625 104.648438 133.210938 109.585938 C 132.75 110.945312 132.414062 112.335938 132.195312 113.773438 C 131.820312 116.265625 133.414062 117.421875 135.664062 116.304688 C 138.867188 114.71875 140.71875 109.390625 141.554688 106.125 C 141.703125 105.554688 142.070312 105.289062 142.65625 105.328125 L 143.148438 105.367188 C 143.796875 105.414062 144.054688 105.757812 143.914062 106.390625 C 142.921875 111.109375 139.59375 118.289062 133.882812 118.5 C 130.273438 118.632812 127.632812 115.78125 127.695312 112.25 C 127.710938 110.90625 127.976562 109.5625 128.476562 108.210938 C 130.492188 102.828125 132.070312 97.609375 133.21875 92.539062 C 133.945312 89.304688 134.273438 83.414062 129.296875 83.796875 C 123.828125 84.203125 119.710938 89.632812 117.820312 94.445312 C 117.523438 95.203125 116.835938 97.75 115.742188 102.101562 C 114.695312 106.296875 113.617188 110.609375 112.515625 115.046875 C 112.015625 117.023438 111.476562 118.4375 109.304688 118.507812 C 107.757812 118.554688 106.773438 117.320312 107.148438 115.820312 C 109.1875 107.664062 111.273438 99.304688 113.398438 90.75 C 113.789062 89.179688 114.492188 85.046875 112.757812 84.054688 C 108.851562 81.8125 106.5625 92.265625 106.085938 94.3125 C 105.914062 95.046875 105.453125 95.351562 104.710938 95.234375 L 104.507812 95.203125 C 103.796875 95.085938 103.523438 94.679688 103.6875 93.96875 C 104.351562 91.070312 105.1875 88.515625 106.195312 86.3125 C 109.242188 79.601562 117.304688 81.179688 118.617188 88.046875 C 118.65625 88.257812 118.734375 88.273438 118.859375 88.101562 Z M 118.859375 88.101562 "/>
<path style=" stroke:none;fill-rule:nonzero;fill:rgb(58.431373%,68.235294%,73.333333%);fill-opacity:1;" d="M 175.609375 99.265625 C 174.65625 102.578125 174.242188 105.851562 174.351562 109.09375 C 174.40625 110.53125 174.648438 111.789062 175.09375 112.867188 C 175.890625 114.789062 177.523438 116.515625 179.695312 116.664062 C 181.375 116.773438 183.375 116.609375 184.992188 115.984375 C 189.054688 114.4375 192.476562 111.898438 195.242188 108.375 C 195.585938 107.9375 195.992188 107.867188 196.460938 108.179688 C 196.546875 108.242188 196.625 108.320312 196.703125 108.398438 C 197.15625 108.9375 197.1875 109.492188 196.804688 110.078125 C 196.078125 111.179688 195.28125 112.101562 194.40625 112.859375 C 190.375 116.328125 185.0625 118.6875 179.59375 118.460938 C 172.851562 118.1875 169.210938 112.195312 168.828125 106.09375 C 168.273438 97.242188 171.53125 90.351562 178.617188 85.421875 C 182.289062 82.859375 186.945312 81.335938 191.304688 82.359375 C 196.15625 83.492188 197.90625 88.132812 195.875 92.53125 C 193.765625 97.078125 187.320312 98.5 182.929688 98.828125 C 180.765625 98.984375 178.445312 99.039062 175.984375 98.992188 C 175.789062 98.992188 175.664062 99.085938 175.609375 99.265625 Z M 183.664062 96.914062 C 186.5 96.585938 191.320312 94.960938 192.828125 92.171875 C 195.117188 87.976562 192.632812 82.726562 187.34375 83.921875 C 184.242188 84.625 181.5625 86.40625 179.726562 89.15625 C 178.117188 91.554688 176.945312 94.164062 176.21875 96.976562 C 176.171875 97.148438 176.242188 97.242188 176.421875 97.242188 C 178.90625 97.304688 181.320312 97.195312 183.664062 96.914062 Z M 183.664062 96.914062 "/>
</g>
</svg>
