<?xml version="1.0" encoding="UTF-8"?>
<svg xmlns="http://www.w3.org/2000/svg" xmlns:xlink="http://www.w3.org/1999/xlink" width="100px" height="60px" viewBox="0 0 99 60" version="1.1">
<g id="surface1">
<path style=" stroke:none;fill-rule:nonzero;fill:rgb(82.745098%,54.901961%,35.686275%);fill-opacity:1;" d="M 72.121094 1.460938 C 72.121094 1.8125 71.835938 2.097656 71.484375 2.097656 C 71.136719 2.097656 70.851562 1.8125 70.851562 1.460938 C 70.851562 1.109375 71.136719 0.824219 71.484375 0.824219 C 71.835938 0.824219 72.121094 1.109375 72.121094 1.460938 Z M 72.121094 1.460938 "/>
<path style=" stroke:none;fill-rule:nonzero;fill:rgb(82.745098%,54.901961%,35.686275%);fill-opacity:1;" d="M 56.40625 7.925781 L 57.691406 9.65625 C 57.761719 9.753906 57.738281 9.800781 57.621094 9.796875 L 56.878906 9.78125 C 56.75 9.78125 56.628906 9.71875 56.550781 9.617188 L 55.664062 8.414062 C 55.585938 8.304688 55.480469 8.265625 55.347656 8.296875 C 51.367188 9.230469 50.71875 4.289062 52.914062 2.183594 C 54.746094 0.425781 57.84375 1.117188 58.089844 3.867188 C 58.242188 5.574219 57.683594 6.902344 56.417969 7.855469 C 56.40625 7.863281 56.398438 7.875 56.394531 7.886719 C 56.394531 7.898438 56.398438 7.914062 56.40625 7.925781 Z M 54.105469 7.605469 C 55.300781 7.945312 56.621094 6.972656 57.054688 5.4375 C 57.488281 3.898438 56.871094 2.378906 55.675781 2.039062 C 54.476562 1.699219 53.15625 2.667969 52.722656 4.207031 C 52.289062 5.742188 52.910156 7.265625 54.105469 7.605469 Z M 54.105469 7.605469 "/>
<path style=" stroke:none;fill-rule:nonzero;fill:rgb(5.490196%,15.686275%,24.705882%);fill-opacity:1;" d="M 5.09375 30.25 C 5.777344 30.109375 5.886719 29.230469 5.886719 28.652344 C 5.894531 20.785156 5.894531 13.011719 5.882812 5.335938 C 5.882812 4.792969 5.785156 3.839844 5.238281 3.542969 C 4.53125 3.15625 3.324219 3.171875 2.535156 3.175781 C 2.507812 3.175781 2.492188 3.164062 2.492188 3.132812 L 2.488281 1.855469 C 2.488281 1.828125 2.507812 1.808594 2.535156 1.808594 L 8.65625 1.347656 C 8.726562 1.339844 8.761719 1.375 8.761719 1.445312 C 8.769531 11.460938 8.765625 20.425781 8.757812 28.339844 C 8.753906 29.15625 8.792969 30.191406 9.835938 30.3125 C 11.351562 30.484375 12.863281 30.488281 14.359375 30.324219 C 15.132812 30.238281 15.523438 29.78125 15.527344 28.949219 C 15.550781 24.621094 15.550781 20.355469 15.53125 16.152344 C 15.53125 15.660156 15.425781 15.238281 15.214844 14.882812 C 14.808594 14.191406 13.050781 14.226562 12.363281 14.242188 C 12.335938 14.242188 12.324219 14.230469 12.324219 14.203125 L 12.324219 12.917969 C 12.324219 12.886719 12.339844 12.867188 12.371094 12.863281 L 18.308594 12.40625 C 18.335938 12.40625 18.367188 12.414062 18.386719 12.433594 C 18.410156 12.453125 18.421875 12.484375 18.421875 12.511719 C 18.417969 18.164062 18.417969 23.496094 18.417969 28.515625 C 18.414062 29.285156 18.492188 30.167969 19.386719 30.300781 C 20.109375 30.40625 20.785156 30.453125 21.417969 30.433594 C 21.464844 30.433594 21.488281 30.457031 21.488281 30.503906 L 21.5 31.730469 C 21.5 31.78125 21.476562 31.804688 21.421875 31.800781 C 18.890625 31.65625 16.386719 31.636719 13.910156 31.738281 C 12.75 31.785156 11.53125 31.785156 10.257812 31.738281 C 7.597656 31.632812 5.046875 31.65625 2.605469 31.804688 C 2.527344 31.808594 2.492188 31.773438 2.492188 31.695312 L 2.488281 30.507812 C 2.488281 30.460938 2.511719 30.4375 2.5625 30.4375 C 3.554688 30.457031 4.398438 30.394531 5.09375 30.25 Z M 5.09375 30.25 "/>
<path style=" stroke:none;fill-rule:nonzero;fill:rgb(5.490196%,15.686275%,24.705882%);fill-opacity:1;" d="M 80.925781 28.609375 C 80.300781 30.082031 79.082031 31.246094 77.652344 31.835938 C 76.019531 32.511719 73.859375 32.339844 72.179688 31.863281 C 70.953125 31.511719 69.925781 30.878906 69.101562 29.960938 C 68.082031 28.820312 68.109375 27.046875 68.613281 25.679688 C 69.871094 22.277344 74.402344 21.042969 77.574219 20.625 C 78.636719 20.484375 79.632812 20.390625 80.566406 20.339844 C 80.644531 20.335938 80.683594 20.292969 80.6875 20.21875 C 80.78125 17.796875 80.6875 15.5 78.601562 13.957031 C 77.390625 13.066406 76.109375 12.980469 74.679688 13.207031 C 73.359375 13.414062 72.277344 13.996094 71.433594 14.957031 C 71.324219 15.082031 71.351562 15.144531 71.519531 15.144531 C 74.46875 15.179688 74.042969 19.609375 71.234375 19.109375 C 70.023438 18.894531 69.464844 18.121094 69.546875 16.792969 C 69.710938 14.183594 72.308594 12.574219 74.6875 12.238281 C 76.582031 11.96875 78.273438 12.183594 79.765625 12.882812 C 82.101562 13.980469 83.675781 15.878906 83.691406 18.523438 C 83.710938 21.863281 83.714844 25.125 83.699219 28.308594 C 83.691406 29.136719 84.066406 30.519531 85.074219 30.667969 C 86.476562 30.871094 86.855469 29.480469 86.871094 28.378906 C 86.886719 27.390625 86.890625 26.4375 86.878906 25.523438 C 86.878906 25.5 86.890625 25.472656 86.90625 25.457031 C 86.925781 25.4375 86.949219 25.429688 86.976562 25.429688 L 87.910156 25.425781 C 87.960938 25.425781 87.984375 25.453125 87.988281 25.503906 C 88.023438 26.660156 88.011719 27.707031 87.953125 28.644531 C 87.914062 29.234375 87.75 29.796875 87.457031 30.332031 C 87.417969 30.410156 87.441406 30.445312 87.527344 30.445312 C 88.371094 30.449219 89.15625 30.390625 89.878906 30.269531 C 90.703125 30.128906 90.738281 29.035156 90.738281 28.40625 C 90.730469 20.789062 90.726562 13.183594 90.734375 5.59375 C 90.734375 5.007812 90.6875 3.890625 90.113281 3.5625 C 89.394531 3.15625 88.210938 3.191406 87.375 3.167969 C 87.347656 3.164062 87.332031 3.152344 87.332031 3.125 L 87.335938 1.859375 C 87.335938 1.824219 87.351562 1.808594 87.382812 1.808594 L 93.5 1.347656 C 93.570312 1.339844 93.609375 1.375 93.609375 1.449219 C 93.613281 10.363281 93.613281 19.332031 93.605469 28.359375 C 93.605469 28.988281 93.628906 30.03125 94.371094 30.226562 C 95.179688 30.441406 96.136719 30.449219 96.960938 30.445312 C 97.003906 30.445312 97.027344 30.464844 97.027344 30.507812 L 97.027344 31.734375 C 97.027344 31.78125 97.003906 31.800781 96.953125 31.800781 C 93.53125 31.644531 90.683594 31.640625 87.449219 31.796875 C 87.417969 31.800781 87.386719 31.789062 87.367188 31.765625 C 87.34375 31.742188 87.332031 31.714844 87.332031 31.683594 L 87.347656 30.730469 C 87.347656 30.609375 87.308594 30.59375 87.226562 30.679688 C 85.863281 32.160156 83.65625 32.625 82.160156 31.085938 C 81.546875 30.453125 81.167969 29.632812 81.023438 28.625 C 81.003906 28.503906 80.972656 28.5 80.925781 28.609375 Z M 75.617188 22.191406 C 73.273438 23.175781 71.214844 25.667969 71.722656 28.371094 C 71.878906 29.199219 72.316406 29.894531 73.039062 30.453125 C 74.671875 31.722656 76.855469 31.472656 78.503906 30.300781 C 79.871094 29.332031 80.585938 28 80.652344 26.308594 C 80.703125 24.953125 80.714844 23.304688 80.683594 21.359375 C 80.683594 21.285156 80.648438 21.25 80.574219 21.253906 C 78.578125 21.328125 76.925781 21.640625 75.617188 22.191406 Z M 75.617188 22.191406 "/>
<path style=" stroke:none;fill-rule:nonzero;fill:rgb(82.745098%,54.901961%,35.686275%);fill-opacity:1;" d="M 78.609375 3.203125 L 79.847656 3.214844 C 79.890625 3.21875 79.910156 3.238281 79.90625 3.28125 L 79.835938 3.789062 C 79.828125 3.851562 79.792969 3.882812 79.730469 3.882812 L 78.515625 3.878906 C 78.441406 3.878906 78.398438 3.917969 78.386719 3.992188 L 78 7.148438 C 77.976562 7.359375 78.105469 7.558594 78.308594 7.617188 C 78.589844 7.699219 78.867188 7.625 79.144531 7.398438 C 79.148438 7.390625 79.15625 7.390625 79.164062 7.398438 C 79.269531 7.519531 79.359375 7.6875 79.429688 7.90625 C 79.4375 7.9375 79.429688 7.972656 79.402344 7.992188 C 78.535156 8.621094 76.960938 8.679688 77.101562 7.179688 C 77.1875 6.253906 77.3125 5.199219 77.480469 4.019531 C 77.484375 3.988281 77.472656 3.953125 77.453125 3.925781 C 77.429688 3.898438 77.398438 3.882812 77.363281 3.882812 L 76.867188 3.878906 C 76.828125 3.878906 76.789062 3.859375 76.761719 3.832031 C 76.734375 3.800781 76.71875 3.761719 76.722656 3.71875 L 76.738281 3.425781 C 76.742188 3.339844 76.789062 3.289062 76.875 3.28125 L 77.472656 3.210938 C 77.554688 3.203125 77.605469 3.15625 77.628906 3.074219 L 77.984375 1.621094 C 78.015625 1.492188 78.128906 1.40625 78.257812 1.410156 L 78.582031 1.414062 C 78.660156 1.414062 78.695312 1.457031 78.6875 1.535156 L 78.503906 3.082031 C 78.492188 3.164062 78.53125 3.203125 78.609375 3.203125 Z M 78.609375 3.203125 "/>
<path style=" stroke:none;fill-rule:nonzero;fill:rgb(5.490196%,15.686275%,24.705882%);fill-opacity:1;" d="M 18.621094 4.757812 C 18.621094 6.039062 17.585938 7.078125 16.308594 7.078125 C 15.03125 7.078125 13.996094 6.039062 13.996094 4.757812 C 13.996094 3.476562 15.03125 2.4375 16.308594 2.4375 C 17.585938 2.4375 18.621094 3.476562 18.621094 4.757812 Z M 18.621094 4.757812 "/>
<path style=" stroke:none;fill-rule:nonzero;fill:rgb(82.745098%,54.901961%,35.686275%);fill-opacity:1;" d="M 40.675781 4.722656 C 41.257812 3.363281 42.722656 2.738281 44.015625 3.191406 C 44.746094 3.449219 45.160156 4.007812 45.265625 4.867188 C 45.492188 6.789062 44.015625 8.738281 41.964844 8.355469 C 41.050781 8.183594 40.519531 7.578125 40.367188 6.542969 C 40.34375 6.371094 40.300781 6.363281 40.238281 6.53125 C 39.707031 7.996094 38.09375 9.082031 36.699219 7.910156 C 36.636719 7.859375 36.601562 7.871094 36.589844 7.953125 L 36.339844 10.042969 C 36.332031 10.085938 36.308594 10.109375 36.257812 10.109375 L 35.496094 10.105469 C 35.449219 10.105469 35.429688 10.082031 35.433594 10.035156 L 36.246094 3.320312 C 36.265625 3.164062 36.351562 3.089844 36.507812 3.097656 L 36.765625 3.109375 C 36.957031 3.121094 37.046875 3.222656 37.035156 3.414062 L 36.976562 4.328125 C 36.964844 4.472656 37 4.484375 37.082031 4.363281 C 37.28125 4.070312 37.511719 3.8125 37.765625 3.585938 C 38.964844 2.523438 40.46875 3.011719 40.578125 4.707031 C 40.585938 4.851562 40.621094 4.855469 40.675781 4.722656 Z M 42.132812 7.65625 C 42.90625 7.933594 43.839844 7.292969 44.222656 6.222656 C 44.605469 5.152344 44.289062 4.058594 43.515625 3.78125 C 42.742188 3.503906 41.804688 4.148438 41.421875 5.21875 C 41.042969 6.289062 41.359375 7.378906 42.132812 7.65625 Z M 37.617188 7.683594 C 39.804688 7.875 40.394531 3.402344 38.574219 3.785156 C 38.34375 3.832031 38.15625 3.917969 38.023438 4.03125 C 37.152344 4.785156 36.714844 5.8125 36.707031 7.113281 C 36.707031 7.183594 36.730469 7.246094 36.78125 7.296875 C 36.996094 7.523438 37.273438 7.652344 37.617188 7.683594 Z M 37.617188 7.683594 "/>
<path style=" stroke:none;fill-rule:nonzero;fill:rgb(82.745098%,54.901961%,35.686275%);fill-opacity:1;" d="M 63.597656 6.183594 C 63.589844 7.132812 64.046875 7.671875 64.945312 7.679688 C 65.585938 7.683594 66.09375 7.453125 66.585938 7.0625 C 66.714844 6.960938 66.839844 6.964844 66.957031 7.082031 L 67.035156 7.164062 C 67.085938 7.214844 67.113281 7.28125 67.109375 7.355469 C 67.105469 7.425781 67.074219 7.492188 67.023438 7.539062 C 66.246094 8.226562 65.402344 8.507812 64.496094 8.382812 C 63.324219 8.222656 62.726562 7.523438 62.703125 6.292969 C 62.667969 4.421875 64.070312 2.820312 66.03125 3.078125 C 66.753906 3.175781 67.441406 3.726562 67.253906 4.535156 C 66.96875 5.757812 64.722656 5.933594 63.738281 6.03125 C 63.644531 6.039062 63.597656 6.089844 63.597656 6.183594 Z M 63.761719 5.410156 C 64.550781 5.363281 65.28125 5.210938 65.953125 4.953125 C 66.554688 4.71875 66.671875 3.890625 65.957031 3.746094 C 64.847656 3.523438 63.945312 4.285156 63.710938 5.355469 C 63.710938 5.371094 63.714844 5.382812 63.722656 5.394531 C 63.734375 5.40625 63.746094 5.410156 63.761719 5.410156 Z M 63.761719 5.410156 "/>
<path style=" stroke:none;fill-rule:nonzero;fill:rgb(82.745098%,54.901961%,35.686275%);fill-opacity:1;" d="M 75.230469 7.171875 C 75.238281 6.988281 75.195312 6.972656 75.097656 7.128906 C 74.683594 7.8125 74.160156 8.226562 73.527344 8.371094 C 72.601562 8.578125 71.84375 7.984375 71.738281 7.0625 C 71.433594 4.34375 73.859375 2.457031 76.453125 3.226562 C 76.53125 3.25 76.5625 3.300781 76.554688 3.382812 L 75.984375 8.140625 C 75.96875 8.285156 75.886719 8.355469 75.738281 8.347656 L 75.378906 8.328125 C 75.21875 8.316406 75.144531 8.230469 75.164062 8.066406 C 75.195312 7.761719 75.21875 7.460938 75.230469 7.171875 Z M 74.738281 6.84375 C 75.378906 5.914062 75.511719 4.925781 75.582031 3.84375 C 75.585938 3.773438 75.554688 3.734375 75.484375 3.726562 C 73.664062 3.539062 72.335938 5.191406 72.691406 6.921875 C 72.796875 7.4375 73.109375 7.667969 73.632812 7.621094 C 74.078125 7.578125 74.492188 7.195312 74.738281 6.84375 Z M 74.738281 6.84375 "/>
<path style=" stroke:none;fill-rule:nonzero;fill:rgb(82.745098%,54.901961%,35.686275%);fill-opacity:1;" d="M 80.335938 6.164062 C 80.296875 6.855469 80.582031 7.511719 81.328125 7.644531 C 82.117188 7.78125 82.746094 7.523438 83.347656 7.050781 C 83.421875 6.992188 83.5 6.984375 83.582031 7.03125 C 83.6875 7.089844 83.78125 7.175781 83.859375 7.289062 C 83.902344 7.351562 83.894531 7.410156 83.839844 7.460938 C 82.890625 8.332031 81.855469 8.605469 80.742188 8.28125 C 79.820312 8.015625 79.378906 7.070312 79.417969 6.148438 C 79.484375 4.679688 80.367188 3.375 81.851562 3.085938 C 82.765625 2.910156 84.132812 3.261719 83.996094 4.441406 C 83.839844 5.742188 81.460938 5.933594 80.464844 6.03125 C 80.382812 6.039062 80.339844 6.082031 80.335938 6.164062 Z M 80.492188 5.410156 C 81.382812 5.351562 82.128906 5.191406 82.726562 4.933594 C 83.597656 4.558594 83.140625 3.660156 82.3125 3.699219 C 81.378906 3.734375 80.757812 4.289062 80.445312 5.351562 C 80.441406 5.367188 80.445312 5.382812 80.453125 5.390625 C 80.460938 5.402344 80.476562 5.410156 80.492188 5.410156 Z M 80.492188 5.410156 "/>
<path style=" stroke:none;fill-rule:nonzero;fill:rgb(82.745098%,54.901961%,35.686275%);fill-opacity:1;" d="M 46.5625 4.324219 C 46.546875 4.503906 46.585938 4.515625 46.671875 4.359375 C 47.082031 3.632812 47.652344 2.917969 48.585938 3.109375 C 48.640625 3.121094 48.679688 3.175781 48.667969 3.234375 L 48.542969 3.964844 C 48.53125 4.019531 48.5 4.039062 48.445312 4.023438 C 46.441406 3.402344 46.25 7.1875 46.164062 8.273438 C 46.160156 8.3125 46.140625 8.332031 46.101562 8.332031 L 45.269531 8.332031 C 45.246094 8.332031 45.234375 8.320312 45.238281 8.296875 L 45.84375 3.285156 C 45.859375 3.167969 45.960938 3.085938 46.078125 3.09375 L 46.46875 3.121094 C 46.59375 3.128906 46.652344 3.195312 46.640625 3.316406 Z M 46.5625 4.324219 "/>
<path style=" stroke:none;fill-rule:nonzero;fill:rgb(82.745098%,54.901961%,35.686275%);fill-opacity:1;" d="M 61.304688 7.246094 C 61.164062 7.433594 61.011719 7.605469 60.839844 7.769531 C 60.105469 8.484375 58.589844 8.832031 58.183594 7.554688 C 58.074219 7.214844 58.046875 6.824219 58.105469 6.382812 C 58.246094 5.296875 58.371094 4.234375 58.480469 3.195312 C 58.484375 3.140625 58.527344 3.101562 58.582031 3.101562 L 59.332031 3.101562 C 59.355469 3.101562 59.375 3.113281 59.390625 3.132812 C 59.40625 3.148438 59.414062 3.171875 59.410156 3.195312 C 59.273438 4.347656 59.140625 5.492188 59.011719 6.636719 C 58.957031 7.09375 59.085938 7.609375 59.644531 7.632812 C 60.351562 7.65625 60.960938 6.984375 61.277344 6.398438 C 61.472656 6.035156 61.589844 5.613281 61.632812 5.128906 C 61.691406 4.445312 61.769531 3.792969 61.859375 3.167969 C 61.867188 3.125 61.890625 3.105469 61.933594 3.105469 L 62.675781 3.101562 C 62.75 3.101562 62.78125 3.140625 62.773438 3.210938 L 62.183594 8.160156 C 62.167969 8.289062 62.09375 8.351562 61.960938 8.34375 L 61.570312 8.324219 C 61.425781 8.316406 61.359375 8.238281 61.367188 8.089844 L 61.425781 7.292969 C 61.4375 7.140625 61.394531 7.125 61.304688 7.246094 Z M 61.304688 7.246094 "/>
<path style=" stroke:none;fill-rule:nonzero;fill:rgb(82.745098%,54.901961%,35.686275%);fill-opacity:1;" d="M 68.589844 4.390625 C 69.003906 3.644531 69.550781 2.960938 70.425781 3.089844 C 70.558594 3.109375 70.613281 3.183594 70.589844 3.316406 L 70.472656 3.917969 C 70.457031 4.003906 70.40625 4.035156 70.320312 4.011719 C 69.132812 3.683594 68.492188 5.140625 68.355469 6.066406 C 68.253906 6.742188 68.167969 7.460938 68.101562 8.222656 C 68.09375 8.300781 68.050781 8.339844 67.972656 8.339844 L 67.257812 8.332031 C 67.195312 8.332031 67.164062 8.300781 67.171875 8.234375 L 67.777344 3.238281 C 67.789062 3.128906 67.847656 3.082031 67.957031 3.089844 L 68.378906 3.125 C 68.492188 3.132812 68.578125 3.230469 68.570312 3.34375 L 68.492188 4.359375 C 68.480469 4.519531 68.511719 4.53125 68.589844 4.390625 Z M 68.589844 4.390625 "/>
<path style=" stroke:none;fill-rule:nonzero;fill:rgb(82.745098%,54.901961%,35.686275%);fill-opacity:1;" d="M 70.242188 8.253906 L 70.851562 3.167969 C 70.855469 3.128906 70.886719 3.101562 70.921875 3.101562 L 71.695312 3.101562 C 71.714844 3.101562 71.734375 3.113281 71.75 3.128906 C 71.761719 3.140625 71.769531 3.164062 71.765625 3.183594 L 71.15625 8.273438 C 71.152344 8.3125 71.121094 8.339844 71.085938 8.339844 L 70.3125 8.335938 C 70.292969 8.335938 70.273438 8.324219 70.257812 8.308594 C 70.246094 8.292969 70.242188 8.273438 70.242188 8.253906 Z M 70.242188 8.253906 "/>
<path style=" stroke:none;fill-rule:nonzero;fill:rgb(5.490196%,15.686275%,24.705882%);fill-opacity:1;" d="M 27.910156 14.375 C 27.898438 19.660156 27.902344 23.914062 27.921875 27.144531 C 27.933594 29.085938 28.828125 31.585938 31.300781 31.117188 C 33.195312 30.757812 33.753906 28.171875 33.769531 26.589844 C 33.78125 25.679688 33.78125 24.789062 33.773438 23.917969 C 33.773438 23.898438 33.78125 23.878906 33.796875 23.863281 C 33.808594 23.847656 33.828125 23.839844 33.851562 23.839844 L 34.757812 23.839844 C 34.8125 23.839844 34.839844 23.867188 34.84375 23.921875 C 34.929688 26.492188 35 28.917969 33.433594 30.960938 C 32.011719 32.816406 29.375 32.441406 27.425781 31.480469 C 25.574219 30.566406 24.90625 28.488281 24.90625 26.511719 C 24.898438 22.414062 24.894531 18.34375 24.902344 14.308594 C 24.902344 14.265625 24.867188 14.234375 24.824219 14.234375 L 21.253906 14.234375 C 21.214844 14.234375 21.183594 14.199219 21.183594 14.160156 L 21.179688 13.351562 C 21.179688 13.300781 21.207031 13.273438 21.257812 13.269531 C 24.335938 13.074219 26.09375 10.335938 26.566406 7.453125 C 26.71875 6.527344 26.800781 5.664062 26.816406 4.851562 C 26.816406 4.816406 26.835938 4.796875 26.871094 4.796875 L 27.867188 4.789062 C 27.890625 4.789062 27.898438 4.800781 27.898438 4.820312 L 27.90625 12.8125 C 27.90625 12.839844 27.933594 12.863281 27.964844 12.863281 L 34.058594 12.863281 C 34.125 12.863281 34.160156 12.898438 34.160156 12.964844 L 34.160156 14.148438 C 34.160156 14.203125 34.117188 14.246094 34.0625 14.246094 L 28.058594 14.230469 C 27.960938 14.230469 27.910156 14.277344 27.910156 14.375 Z M 27.910156 14.375 "/>
<path style=" stroke:none;fill-rule:nonzero;fill:rgb(5.490196%,15.686275%,24.705882%);fill-opacity:1;" d="M 39.699219 21.773438 C 39.675781 24.785156 40.152344 28.414062 42.871094 30.234375 C 44.445312 31.28125 46.226562 31.445312 48.21875 30.71875 C 50.191406 29.996094 51.34375 28.359375 51.953125 26.402344 C 52.058594 26.066406 52.402344 25.988281 52.703125 26.101562 C 52.878906 26.167969 52.996094 26.339844 52.988281 26.527344 C 52.96875 27.011719 52.78125 27.328125 52.589844 27.75 C 50.199219 33.035156 43.851562 33.539062 39.738281 30.0625 C 37.019531 27.765625 35.832031 24.671875 36.109375 21.164062 C 36.324219 18.519531 37.390625 16.285156 39.316406 14.460938 C 41.59375 12.300781 44.644531 11.648438 47.640625 12.441406 C 50.074219 13.085938 51.679688 15.019531 52.484375 17.367188 C 52.804688 18.296875 52.980469 19.460938 53.011719 20.863281 C 53.019531 21.386719 52.800781 21.648438 52.351562 21.648438 C 48.160156 21.65625 43.980469 21.65625 39.820312 21.652344 C 39.742188 21.652344 39.699219 21.691406 39.699219 21.773438 Z M 40.628906 16.398438 C 40.085938 17.6875 39.792969 19.097656 39.753906 20.625 C 39.75 20.695312 39.785156 20.730469 39.855469 20.730469 L 50.019531 20.734375 C 50.085938 20.734375 50.117188 20.703125 50.117188 20.636719 C 50.097656 19.28125 49.847656 17.867188 49.359375 16.390625 C 48.507812 13.8125 46.191406 12.371094 43.566406 13.46875 C 42.1875 14.046875 41.207031 15.023438 40.628906 16.398438 Z M 40.628906 16.398438 "/>
<path style=" stroke:none;fill-rule:nonzero;fill:rgb(5.490196%,15.686275%,24.705882%);fill-opacity:1;" d="M 59.246094 16.914062 C 59.511719 16.183594 59.886719 15.460938 60.371094 14.75 C 61.535156 13.035156 63.023438 12.1875 65.128906 12.449219 C 66.746094 12.648438 68.140625 14.070312 67.613281 15.800781 C 67.179688 17.230469 64.96875 17.414062 64.230469 16.105469 C 63.726562 15.210938 64.007812 14.058594 64.847656 13.464844 C 64.941406 13.402344 64.929688 13.367188 64.820312 13.363281 C 63.785156 13.320312 62.910156 13.558594 62.191406 14.078125 C 59.871094 15.761719 59.332031 19.359375 59.339844 21.988281 C 59.34375 24.296875 59.347656 26.542969 59.351562 28.726562 C 59.355469 29.257812 59.507812 29.671875 59.8125 29.964844 C 60.453125 30.578125 62.703125 30.445312 63.546875 30.445312 C 63.582031 30.445312 63.597656 30.464844 63.597656 30.5 L 63.597656 31.730469 C 63.597656 31.757812 63.585938 31.773438 63.554688 31.773438 C 60.136719 31.605469 56.679688 31.617188 53.175781 31.804688 C 53.089844 31.808594 53.046875 31.765625 53.046875 31.683594 L 53.046875 30.554688 C 53.046875 30.476562 53.085938 30.441406 53.164062 30.441406 C 53.867188 30.453125 54.621094 30.410156 55.421875 30.308594 C 56.285156 30.199219 56.464844 29.433594 56.464844 28.695312 C 56.476562 24.296875 56.472656 20.179688 56.457031 16.335938 C 56.457031 15.5 56.277344 14.570312 55.273438 14.398438 C 54.515625 14.273438 53.789062 14.21875 53.09375 14.242188 C 53.085938 14.242188 53.074219 14.238281 53.066406 14.230469 C 53.058594 14.222656 53.054688 14.210938 53.054688 14.199219 L 53.046875 12.925781 C 53.042969 12.886719 53.0625 12.867188 53.101562 12.863281 L 59.058594 12.398438 C 59.078125 12.398438 59.097656 12.40625 59.113281 12.417969 C 59.125 12.433594 59.132812 12.449219 59.132812 12.472656 L 59.128906 16.894531 C 59.128906 17.125 59.167969 17.128906 59.246094 16.914062 Z M 59.246094 16.914062 "/>
<path style=" stroke:none;fill-rule:nonzero;fill:rgb(58.431373%,68.235294%,73.333333%);fill-opacity:1;" d="M 78.65625 42.820312 C 77.664062 46.773438 76.664062 50.828125 75.65625 54.984375 C 75.4375 55.878906 74.992188 58.546875 76.738281 58.351562 C 77.609375 58.257812 78.34375 57.867188 78.941406 57.183594 C 79.878906 56.105469 80.652344 54.75 81.261719 53.109375 C 81.394531 52.75 81.652344 52.605469 82.027344 52.671875 C 82.050781 52.675781 82.074219 52.679688 82.101562 52.683594 C 82.496094 52.71875 82.628906 52.925781 82.488281 53.300781 C 81.507812 55.964844 79.101562 59.894531 75.636719 59.164062 C 73.761719 58.769531 72.835938 56.851562 73.101562 55.03125 C 73.15625 54.648438 73.234375 54.265625 73.328125 53.886719 C 74.261719 50.191406 75.1875 46.496094 76.097656 42.796875 C 76.105469 42.773438 76.101562 42.75 76.085938 42.734375 C 76.070312 42.714844 76.050781 42.707031 76.027344 42.707031 L 72.421875 42.6875 C 72.078125 42.6875 71.910156 42.515625 71.914062 42.171875 L 71.917969 42.054688 C 71.925781 41.65625 72.128906 41.453125 72.53125 41.453125 L 76.351562 41.433594 C 76.417969 41.433594 76.472656 41.386719 76.488281 41.324219 C 77.035156 39.074219 77.558594 36.957031 78.050781 34.972656 C 78.257812 34.152344 78.738281 33.695312 79.496094 33.605469 C 80.324219 33.503906 80.8125 34.171875 80.621094 34.953125 C 80.132812 36.96875 79.609375 39.082031 79.050781 41.296875 C 79.027344 41.390625 79.066406 41.441406 79.164062 41.441406 L 82.742188 41.445312 C 83.070312 41.445312 83.230469 41.613281 83.222656 41.945312 L 83.21875 42.085938 C 83.203125 42.484375 83 42.6875 82.601562 42.6875 L 78.800781 42.707031 C 78.722656 42.707031 78.675781 42.742188 78.65625 42.820312 Z M 78.65625 42.820312 "/>
<path style=" stroke:none;fill-rule:nonzero;fill:rgb(58.431373%,68.235294%,73.333333%);fill-opacity:1;" d="M 22.1875 44.378906 C 23.726562 42.230469 25.753906 40.90625 28.417969 41.03125 C 30.0625 41.109375 31.699219 41.949219 32.105469 43.660156 C 32.359375 44.722656 32.335938 45.914062 32.035156 47.230469 C 31.398438 50.007812 30.390625 52.519531 29.523438 55.183594 C 29.285156 55.925781 28.789062 57.597656 29.472656 58.179688 C 29.695312 58.363281 29.976562 58.417969 30.328125 58.335938 C 32.355469 57.863281 33.359375 54.789062 33.828125 53.039062 C 33.898438 52.777344 34.070312 52.652344 34.339844 52.667969 L 34.628906 52.679688 C 34.96875 52.699219 35.097656 52.875 35.015625 53.207031 C 34.394531 55.652344 33.054688 58.738281 30.425781 59.207031 C 28.398438 59.570312 26.839844 58.003906 26.902344 56.015625 C 26.929688 55.238281 27.152344 54.480469 27.414062 53.753906 C 28.398438 51.035156 29.136719 48.5625 29.628906 46.34375 C 29.972656 44.804688 30.238281 41.609375 27.660156 41.898438 C 26.519531 42.027344 25.515625 42.492188 24.648438 43.296875 C 23.351562 44.5 22.429688 45.839844 21.875 47.316406 C 21.648438 47.914062 21.308594 49.175781 20.851562 51.09375 C 20.320312 53.339844 19.742188 55.644531 19.121094 58.011719 C 18.894531 58.890625 18.347656 59.300781 17.488281 59.238281 C 16.839844 59.1875 16.40625 58.597656 16.570312 57.953125 C 17.492188 54.28125 18.40625 50.632812 19.300781 47.015625 C 19.625 45.71875 19.699219 44.5625 19.527344 43.546875 C 19.066406 40.789062 15.863281 42.015625 14.535156 43.191406 C 13.257812 44.324219 12.316406 45.652344 11.707031 47.175781 C 11.542969 47.582031 11.195312 48.859375 10.65625 51.003906 C 10.128906 53.117188 9.59375 55.253906 9.054688 57.417969 C 8.890625 58.078125 8.738281 58.507812 8.59375 58.707031 C 7.953125 59.605469 5.972656 59.433594 6.359375 57.882812 C 7.40625 53.667969 8.449219 49.488281 9.480469 45.351562 C 9.6875 44.535156 10.0625 42.21875 8.949219 41.933594 C 8.0625 41.707031 7.398438 42.542969 7.074219 43.257812 C 6.578125 44.367188 6.164062 45.652344 5.832031 47.113281 C 5.746094 47.496094 5.511719 47.660156 5.128906 47.613281 C 5.113281 47.609375 5.097656 47.609375 5.078125 47.605469 C 4.671875 47.574219 4.519531 47.359375 4.617188 46.964844 C 4.882812 45.875 5.199219 44.824219 5.570312 43.820312 C 6.046875 42.539062 6.96875 41.199219 8.398438 41.042969 C 10.324219 40.828125 11.804688 42.1875 12.074219 44.046875 C 12.082031 44.078125 12.101562 44.101562 12.132812 44.109375 C 12.160156 44.117188 12.191406 44.105469 12.207031 44.082031 C 13.738281 42.023438 15.921875 40.800781 18.488281 41.058594 C 20.378906 41.246094 21.777344 42.332031 22.03125 44.339844 C 22.050781 44.484375 22.101562 44.5 22.1875 44.378906 Z M 22.1875 44.378906 "/>
<path style=" stroke:none;fill-rule:nonzero;fill:rgb(58.431373%,68.235294%,73.333333%);fill-opacity:1;" d="M 39.785156 49.632812 C 39.242188 51.613281 38.917969 53.691406 39.289062 55.621094 C 39.550781 56.988281 40.5 58.296875 41.96875 58.339844 C 42.898438 58.367188 43.832031 58.273438 44.726562 57.898438 C 46.707031 57.066406 48.332031 55.824219 49.597656 54.175781 C 49.671875 54.082031 49.78125 54.019531 49.898438 54.007812 C 50.019531 53.992188 50.136719 54.027344 50.230469 54.101562 C 50.363281 54.210938 50.460938 54.359375 50.523438 54.550781 C 50.542969 54.617188 50.542969 54.683594 50.515625 54.746094 C 50.0625 55.84375 48.785156 56.859375 47.726562 57.503906 C 45.90625 58.609375 44.136719 59.257812 42.042969 59.242188 C 38.28125 59.21875 36.4375 55.894531 36.359375 52.511719 C 36.257812 48.070312 38.105469 44.671875 41.894531 42.3125 C 43.976562 41.019531 47.746094 40.152344 49.625 42.394531 C 50.574219 43.53125 50.511719 45.058594 49.878906 46.34375 C 49.191406 47.738281 47.496094 48.632812 46.023438 48.988281 C 43.984375 49.484375 42.035156 49.527344 39.953125 49.503906 C 39.867188 49.503906 39.808594 49.546875 39.785156 49.632812 Z M 43.40625 48.507812 C 44.570312 48.40625 45.734375 48.054688 46.902344 47.449219 C 48.058594 46.851562 48.742188 45.925781 48.808594 44.625 C 48.917969 42.328125 47.011719 41.433594 45.03125 42.132812 C 43.628906 42.625 42.546875 43.46875 41.777344 44.664062 C 40.96875 45.917969 40.410156 47.195312 40.097656 48.496094 C 40.078125 48.578125 40.109375 48.621094 40.195312 48.625 C 41.234375 48.640625 42.308594 48.605469 43.40625 48.507812 Z M 43.40625 48.507812 "/>
<path style=" stroke:none;fill-rule:nonzero;fill:rgb(58.431373%,68.235294%,73.333333%);fill-opacity:1;" d="M 58.929688 44.050781 C 60.144531 42.355469 61.804688 41.363281 63.90625 41.070312 C 65.261719 40.878906 66.457031 41.171875 67.492188 41.945312 C 69.066406 43.125 68.851562 45.710938 68.460938 47.382812 C 67.878906 49.878906 66.945312 52.324219 66.105469 54.792969 C 65.875 55.472656 65.707031 56.167969 65.597656 56.886719 C 65.410156 58.132812 66.207031 58.710938 67.332031 58.152344 C 68.933594 57.359375 69.859375 54.695312 70.277344 53.0625 C 70.351562 52.777344 70.535156 52.644531 70.828125 52.664062 L 71.074219 52.683594 C 71.398438 52.707031 71.527344 52.878906 71.457031 53.195312 C 70.960938 55.554688 69.296875 59.144531 66.441406 59.25 C 64.636719 59.316406 63.316406 57.890625 63.347656 56.125 C 63.355469 55.453125 63.488281 54.78125 63.738281 54.105469 C 64.746094 51.414062 65.535156 48.804688 66.109375 46.269531 C 66.472656 44.652344 66.636719 41.707031 64.148438 41.898438 C 61.414062 42.101562 59.355469 44.816406 58.410156 47.222656 C 58.261719 47.601562 57.917969 48.875 57.371094 51.050781 C 56.847656 53.148438 56.308594 55.304688 55.757812 57.523438 C 55.507812 58.511719 55.238281 59.21875 54.152344 59.253906 C 53.378906 59.277344 52.886719 58.660156 53.074219 57.910156 C 54.09375 53.832031 55.136719 49.652344 56.199219 45.375 C 56.394531 44.589844 56.746094 42.523438 55.878906 42.027344 C 53.925781 40.90625 52.78125 46.132812 52.542969 47.15625 C 52.457031 47.523438 52.226562 47.675781 51.855469 47.617188 L 51.753906 47.601562 C 51.398438 47.542969 51.261719 47.339844 51.34375 46.984375 C 51.675781 45.535156 52.09375 44.257812 52.597656 43.15625 C 54.121094 39.800781 58.152344 40.589844 58.808594 44.023438 C 58.828125 44.128906 58.867188 44.136719 58.929688 44.050781 Z M 58.929688 44.050781 "/>
<path style=" stroke:none;fill-rule:nonzero;fill:rgb(58.431373%,68.235294%,73.333333%);fill-opacity:1;" d="M 87.304688 49.632812 C 86.828125 51.289062 86.621094 52.925781 86.675781 54.546875 C 86.703125 55.265625 86.824219 55.894531 87.046875 56.433594 C 87.445312 57.394531 88.261719 58.257812 89.347656 58.332031 C 90.1875 58.386719 91.1875 58.304688 91.996094 57.992188 C 94.027344 57.21875 95.738281 55.949219 97.121094 54.1875 C 97.292969 53.96875 97.496094 53.933594 97.730469 54.089844 C 97.773438 54.121094 97.8125 54.160156 97.851562 54.199219 C 98.078125 54.46875 98.09375 54.746094 97.902344 55.039062 C 97.539062 55.589844 97.140625 56.050781 96.703125 56.429688 C 94.6875 58.164062 92.03125 59.34375 89.296875 59.230469 C 85.925781 59.09375 84.105469 56.097656 83.914062 53.046875 C 83.636719 48.621094 85.265625 45.175781 88.808594 42.710938 C 90.644531 41.429688 92.972656 40.667969 95.152344 41.179688 C 97.578125 41.746094 98.453125 44.066406 97.4375 46.265625 C 96.382812 48.539062 93.160156 49.25 90.964844 49.414062 C 89.882812 49.492188 88.722656 49.519531 87.492188 49.496094 C 87.394531 49.496094 87.332031 49.542969 87.304688 49.632812 Z M 91.332031 48.457031 C 92.75 48.292969 95.160156 47.480469 95.914062 46.085938 C 97.058594 43.988281 95.816406 41.363281 93.171875 41.960938 C 91.621094 42.3125 90.28125 43.203125 89.363281 44.578125 C 88.558594 45.777344 87.972656 47.082031 87.609375 48.488281 C 87.585938 48.574219 87.621094 48.621094 87.710938 48.621094 C 88.953125 48.652344 90.160156 48.597656 91.332031 48.457031 Z M 91.332031 48.457031 "/>
</g>
</svg>
